<?xml version="1.0" encoding="UTF-8" standalone="no"?>
<!-- Created with Inkscape (http://www.inkscape.org/) -->

<svg
   xmlns:dc="http://purl.org/dc/elements/1.1/"
   xmlns:cc="http://creativecommons.org/ns#"
   xmlns:rdf="http://www.w3.org/1999/02/22-rdf-syntax-ns#"
   xmlns:svg="http://www.w3.org/2000/svg"
   xmlns="http://www.w3.org/2000/svg"
   xmlns:sodipodi="http://sodipodi.sourceforge.net/DTD/sodipodi-0.dtd"
   xmlns:inkscape="http://www.inkscape.org/namespaces/inkscape"
   width="210mm"
   height="297mm"
   viewBox="0 0 210 297"
   version="1.1"
   id="svg848"
   inkscape:version="0.92.2 5c3e80d, 2017-08-06"
   sodipodi:docname="seb.svg">
  <defs
     id="defs842" />
  <sodipodi:namedview
     id="base"
     pagecolor="#ffffff"
     bordercolor="#666666"
     borderopacity="1.0"
     inkscape:pageopacity="0.0"
     inkscape:pageshadow="2"
     inkscape:zoom="0.3"
     inkscape:cx="-200"
     inkscape:cy="600"
     inkscape:document-units="mm"
     inkscape:current-layer="layer1"
     showgrid="false"
     inkscape:window-width="1280"
     inkscape:window-height="755"
     inkscape:window-x="0"
     inkscape:window-y="1"
     inkscape:window-maximized="1" />
  <metadata
     id="metadata845">
    <rdf:RDF>
      <cc:Work
         rdf:about="">
        <dc:format>image/svg+xml</dc:format>
        <dc:type
           rdf:resource="http://purl.org/dc/dcmitype/StillImage" />
        <dc:title />
      </cc:Work>
    </rdf:RDF>
  </metadata>
  <g
     inkscape:label="Layer 1"
     inkscape:groupmode="layer"
     id="layer1">
    <rect
       style="fill:#07007c;fill-opacity:1;stroke:none;stroke-width:0.76499999;stroke-miterlimit:4;stroke-dasharray:none;stroke-dashoffset:0;stroke-opacity:1"
       id="rect812"
       width="117.29861"
       height="40.569443"
       x="49.388889"
       y="53.583332" />
    <rect
       style="fill:#ff0000;fill-opacity:1;stroke:none;stroke-width:0.76499999;stroke-miterlimit:4;stroke-dasharray:none;stroke-dashoffset:0;stroke-opacity:1"
       id="rect814"
       width="67.027779"
       height="68.791664"
       x="30.868052"
       y="101.20833" />
    <path
       style="fill:#ff0000;fill-opacity:1;stroke:none;stroke-width:0.76499999;stroke-miterlimit:4;stroke-dasharray:none;stroke-dashoffset:0;stroke-opacity:1"
       id="path816"
       d="m 33.04051,199.32975 c -2.803123,4.99856 -6.057688,9.71584 -9.189364,14.50813 -3.574586,4.72896 -7.099592,9.47673 -9.702197,14.82181 -0.113318,0.40905 -0.386733,0.80528 -0.339955,1.22715 0.243082,2.19222 8.316793,3.52967 9.875477,3.85925 5.037555,1.20815 10.298334,1.57827 15.177372,3.38666 2.246096,1.19223 3.456985,2.38602 1.715397,4.67125 -2.195189,1.76758 -4.870685,2.98009 -7.288633,4.33093 0,0 4.018873,-3.21145 4.018873,-3.21145 v 0 c -6.685738,4.00464 -2.978071,1.80585 -1.496401,0.89803 1.939551,-2.00238 1.011785,-2.59453 -1.170237,-3.84773 -4.804134,-1.82554 -9.986097,-2.27878 -14.966825,-3.4377 -2.133753,-0.43619 -10.0366094,-1.52948 -10.4901071,-4.44515 -0.071239,-0.45802 0.2389349,-0.89573 0.3584022,-1.3436 2.6823289,-5.39257 6.2542689,-10.21141 9.9088089,-14.97852 3.044517,-4.69606 6.257744,-9.29431 8.822497,-14.28237 0,0 4.766892,-2.15669 4.766892,-2.15669 z"
       inkscape:connector-curvature="0" />
    <path
       style="fill:#ff0000;fill-opacity:1;stroke:none;stroke-width:0.76499999;stroke-miterlimit:4;stroke-dasharray:none;stroke-dashoffset:0;stroke-opacity:1"
       id="path818"
       d="m 56.408415,227.40816 c 4.89912,-1.19189 9.41847,-3.35325 13.855429,-5.69765 -0.529597,0.28276 -2.008552,1.27749 -1.588796,0.84827 0.886333,-0.90632 5.810239,-3.48857 5.793473,-5.06421 -0.0037,-0.34299 -0.419844,-0.54256 -0.629767,-0.81384 -0.591754,-0.31013 -1.154308,-0.68388 -1.775259,-0.9304 -5.366305,-2.13046 -12.491241,-2.37446 -18.186939,-2.39838 -4.627544,0.54856 -9.384083,1.12719 -13.774589,2.79745 -0.757452,0.28816 -2.752694,1.62513 -2.202003,1.03057 0.659799,-0.71236 1.700414,-0.93797 2.55062,-1.40696 -2.603492,1.98062 -3.532018,4.80987 -3.85309,7.92952 -0.323553,3.88092 3.104137,5.05576 6.215483,5.97552 0.987264,0.1816 1.97453,0.3632 2.961796,0.5448 0,0 -4.020719,2.81148 -4.020719,2.81148 v 0 c -1.014018,-0.18457 -2.028039,-0.36914 -3.042057,-0.55371 -0.843421,-0.25083 -1.71463,-0.4223 -2.530258,-0.75248 -1.898298,-0.76846 -3.860803,-2.38237 -4.226722,-4.51772 -0.06867,-0.40073 0.0259,-0.81273 0.03885,-1.21909 0.306475,-3.227 1.195594,-6.22109 3.760078,-8.40698 2.434596,-1.409 5.381395,-3.43363 8.246327,-4.44574 4.40132,-1.55488 9.112883,-2.12682 13.728142,-2.58063 5.629865,0.0637 13.257128,0.30836 18.537906,2.44262 0.698072,0.28213 1.324661,0.71615 1.98699,1.07422 0.297277,0.43893 0.832395,0.79 0.891836,1.31677 0.09185,0.81402 -1.563349,2.20862 -1.916345,2.51585 -3.21486,2.798 -7.15984,4.66213 -10.759028,6.84985 -4.561112,2.37079 -9.21559,4.55773 -14.226008,5.80411 0,0 4.164651,-3.15324 4.164651,-3.15324 z"
       inkscape:connector-curvature="0" />
    <path
       style="fill:#ff0000;fill-opacity:1;stroke:none;stroke-width:0.76499999;stroke-miterlimit:4;stroke-dasharray:none;stroke-dashoffset:0;stroke-opacity:1"
       id="path820"
       d="m 87.876382,186.09836 c 0.423862,3.29426 1.453713,6.45141 2.256641,9.66065 0.656114,2.62246 1.239208,5.26271 1.882413,7.88836 1.879092,7.39159 3.63896,14.81792 5.414269,22.23686 0.460232,1.82924 0.745781,4.35694 1.63362,5.8481 -1.502781,0.73775 -2.925813,1.66716 -4.508344,2.21326 -0.219239,0.0756 0.08556,-0.45775 0.09281,-0.68956 0.01053,-0.33695 -0.0033,-0.67542 -0.03965,-1.01057 -0.157067,-1.45009 -0.519885,-2.89225 -0.851432,-4.30844 -0.803846,-3.44005 -1.253344,-6.94424 -1.504865,-10.4637 -0.0568,-5.62377 4.376102,-7.11411 8.750136,-9.66158 2.04296,-0.73763 4.3338,-1.31748 6.52154,-0.88356 0.96475,0.19134 2.51592,0.87761 3.42112,1.24882 1.79714,1.15973 3.7825,2.29002 5.02983,4.08837 0.5705,0.82252 1.00951,1.83924 1.43616,2.74061 0.69082,2.35331 1.27678,4.88381 0.93497,7.35582 -0.22257,1.60966 -0.77806,2.64302 -1.40279,4.14277 -1.97735,4.29863 -4.93345,7.89741 -8.45285,11.00989 -2.57114,1.95244 -5.34453,3.72399 -8.44822,4.65924 0,0 4.04881,-3.14224 4.04881,-3.14224 v 0 c 4.91371,-1.74862 -5.530984,3.437 -0.27504,0.37856 3.58522,-3.00621 6.57935,-6.55501 8.58642,-10.8156 0.48646,-1.13901 1.24628,-2.6991 1.45409,-3.96548 0.38999,-2.37642 -0.24561,-4.84394 -0.8912,-7.108 -1.54033,-3.36619 -2.98749,-4.69533 -6.23024,-6.5246 -1.08177,-0.42641 -2.17143,-0.92633 -3.33563,-1.10357 -2.16934,-0.33027 -4.393249,0.27988 -6.364791,1.12436 1.011168,-0.60697 1.973209,-1.30454 3.033511,-1.82091 0.4319,-0.21033 -0.791578,0.55342 -1.130324,0.89405 -1.364877,1.37243 -2.276448,3.08202 -2.165405,5.04121 0.224702,3.49478 0.606517,6.98525 1.459873,10.39003 0.437872,1.75721 0.968658,3.58909 1.066837,5.4072 0.01344,0.24881 0.185144,0.59475 -0.01177,0.74743 -1.446692,1.12174 -3.115361,1.92338 -4.673039,2.88508 -1.013791,-1.3048 -1.063766,-4.82908 -1.548239,-6.33185 -1.534816,-7.48158 -3.31167,-14.92918 -5.242928,-22.31533 -1.472408,-5.83441 -3.043518,-11.63529 -4.601839,-17.44356 0,0 4.655542,-2.37212 4.655542,-2.37212 z"
       inkscape:connector-curvature="0" />
    <text
       xml:space="preserve"
       style="font-style:normal;font-variant:normal;font-weight:normal;font-stretch:normal;font-size:10.58333302px;line-height:1.25;font-family:Inconsolata;-inkscape-font-specification:Inconsolata;letter-spacing:0px;word-spacing:0px;fill:#000000;fill-opacity:1;stroke:none;stroke-width:0.26458332"
       x="127"
       y="117.08333"
       id="text824"><tspan
         sodipodi:role="line"
         id="tspan822"
         x="127"
         y="117.08333"
         style="stroke-width:0.26458332">$\frac{1}{2}$</tspan></text>
  </g>
</svg>
