<?xml version="1.0" encoding="UTF-8" standalone="no"?>
<!-- Created with Inkscape (http://www.inkscape.org/) -->

<svg
   xmlns:dc="http://purl.org/dc/elements/1.1/"
   xmlns:cc="http://creativecommons.org/ns#"
   xmlns:rdf="http://www.w3.org/1999/02/22-rdf-syntax-ns#"
   xmlns:svg="http://www.w3.org/2000/svg"
   xmlns="http://www.w3.org/2000/svg"
   xmlns:sodipodi="http://sodipodi.sourceforge.net/DTD/sodipodi-0.dtd"
   xmlns:inkscape="http://www.inkscape.org/namespaces/inkscape"
   width="210mm"
   height="297mm"
   viewBox="0 0 210 297"
   version="1.1"
   id="svg848"
   inkscape:version="0.92.2 5c3e80d, 2017-08-06"
   sodipodi:docname="seb_image_file.svg">
  <defs
     id="defs842" />
  <sodipodi:namedview
     id="base"
     pagecolor="#ffffff"
     bordercolor="#666666"
     borderopacity="1.0"
     inkscape:pageopacity="0.0"
     inkscape:pageshadow="2"
     inkscape:zoom="0.3"
     inkscape:cx="600"
     inkscape:cy="733.33333"
     inkscape:document-units="mm"
     inkscape:current-layer="layer1"
     showgrid="false"
     inkscape:window-width="1280"
     inkscape:window-height="755"
     inkscape:window-x="0"
     inkscape:window-y="1"
     inkscape:window-maximized="1" />
  <metadata
     id="metadata845">
    <rdf:RDF>
      <cc:Work
         rdf:about="">
        <dc:format>image/svg+xml</dc:format>
        <dc:type
           rdf:resource="http://purl.org/dc/dcmitype/StillImage" />
        <dc:title />
      </cc:Work>
    </rdf:RDF>
  </metadata>
  <g
     inkscape:label="Layer 1"
     inkscape:groupmode="layer"
     id="layer1">
    <rect
       style="fill:#ff0000;fill-opacity:1;stroke:none;stroke-width:0.76499999;stroke-miterlimit:4;stroke-dasharray:none;stroke-dashoffset:0;stroke-opacity:1"
       id="rect812"
       width="81.138885"
       height="67.909721"
       x="45.861111"
       y="53.583332" />
    <text
       xml:space="preserve"
       style="font-style:normal;font-variant:normal;font-weight:normal;font-stretch:normal;font-size:10.58333302px;line-height:1.25;font-family:Inconsolata;-inkscape-font-specification:Inconsolata;letter-spacing:0px;word-spacing:0px;fill:#000000;fill-opacity:1;stroke:none;stroke-width:0.26458332"
       x="64.381943"
       y="174.40971"
       id="text816"><tspan
         sodipodi:role="line"
         x="64.381943"
         y="174.40971"
         style="stroke-width:0.26458332"
         id="tspan818">$\frac{1}{2}$</tspan></text>
    <path
       style="fill:#ff0000;fill-opacity:1;stroke:none;stroke-width:0.76499999;stroke-miterlimit:4;stroke-dasharray:none;stroke-dashoffset:0;stroke-opacity:1"
       id="path822"
       d="m 39.268153,221.62637 c -0.807164,5.18454 -2.708198,10.08445 -4.161586,15.09972 -1.660649,5.027 -2.850888,10.15138 -3.487629,15.40391 0.055,0.43479 0.0019,0.89766 0.164997,1.30437 0.77883,1.94011 5.30588,2.36595 7.043277,2.75906 3.142832,0.75466 6.478098,1.45928 8.246978,4.44816 0.314111,0.53076 0.516509,1.12013 0.774763,1.68019 0.797047,2.56484 0.817872,5.07592 0.704205,7.72242 0,0 -4.402119,2.21935 -4.402119,2.21935 v 0 c 0.108749,-2.55484 0.10586,-4.98467 -0.711655,-7.45046 -0.241499,-0.52875 -0.42825,-1.08611 -0.724496,-1.58625 -1.699815,-2.86972 -5.046858,-3.4264 -8.034472,-4.15778 -2.149467,-0.47487 -6.474984,-0.83768 -7.426391,-3.25527 -0.177464,-0.45095 -0.118634,-0.96193 -0.177951,-1.44289 0.738659,-5.2869 1.951403,-10.46219 3.59899,-15.5421 1.430406,-4.93646 3.351831,-9.76399 3.929123,-14.90879 0,0 4.663966,-2.29364 4.663966,-2.29364 z"
       inkscape:connector-curvature="0" />
    <path
       style="fill:#ff0000;fill-opacity:1;stroke:none;stroke-width:0.76499999;stroke-miterlimit:4;stroke-dasharray:none;stroke-dashoffset:0;stroke-opacity:1"
       id="path824"
       d="m 70.684199,261.56053 c 5.638387,-2.34969 7.832595,-3.73397 9.69083,-4.83985 3.407587,-2.17809 7.013183,-4.24275 9.784336,-7.23742 0.09637,-0.20608 0.292108,-0.39077 0.289113,-0.61826 -0.01328,-1.00852 -5.181761,-1.33493 -5.849202,-1.38786 -2.623256,-0.0483 -5.288134,0.22762 -7.755951,1.17187 -0.493821,0.18895 -1.882063,0.95707 -1.437005,0.67162 1.015961,-0.65164 2.104248,-1.18294 3.156374,-1.77441 -2.580008,1.8362 -2.920942,4.59188 -3.144406,7.5269 0.137742,2.21281 -0.556226,5.97114 0.279535,8.00409 0.15295,0.37205 0.4222,0.68483 0.633304,1.02726 0,0 -4.436724,2.57452 -4.436724,2.57452 v 0 c -0.232733,-0.38883 -0.525217,-0.74763 -0.698199,-1.16647 -0.91871,-2.22445 -0.111712,-5.77274 -0.312179,-8.16568 0.159668,-3.02417 0.406906,-5.90222 2.908295,-7.96352 1.868651,-1.07474 3.710805,-2.19694 5.605957,-3.22424 2.798945,-1.51722 6.217716,-1.60649 9.307991,-1.61619 1.362827,0.10927 6.106824,0.16763 6.45237,2.13057 0.04919,0.27946 -0.164176,0.54326 -0.246266,0.81488 -2.792809,3.11574 -6.482548,5.23714 -9.973815,7.47293 -5.948302,3.56157 -11.916066,7.13689 -18.326373,9.81743 0,0 4.072015,-3.21817 4.072015,-3.21817 z"
       inkscape:connector-curvature="0" />
    <path
       style="fill:#ff0000;fill-opacity:1;stroke:none;stroke-width:0.76499999;stroke-miterlimit:4;stroke-dasharray:none;stroke-dashoffset:0;stroke-opacity:1"
       id="path826"
       d="m 101.98155,206.4916 c -0.11793,4.13947 -0.10767,8.28178 -0.09,12.42254 0.097,3.11348 -0.26875,6.21524 -0.55353,9.31051 -0.13222,1.45475 -0.16933,2.89972 -0.46967,4.33174 -0.38263,1.80278 -0.54585,3.63642 -0.85785,5.45203 -0.286728,1.68588 -0.484578,3.3844 -0.612075,5.0892 -0.125352,2.35041 -0.110181,4.70622 -0.126117,7.05934 -0.01836,2.37928 0.593056,4.71433 0.691317,7.08062 -1.613157,0.79767 -3.122724,1.85326 -4.839475,2.393 -0.266362,0.0837 -0.255477,-0.49861 -0.346948,-0.76241 -0.833644,-2.40431 -1.20291,-4.93784 -1.596681,-7.43978 -0.717013,-5.37885 -1.334114,-10.7644 -0.662737,-16.17164 1.875925,-7.80398 6.684772,-9.10891 13.452356,-12.67046 5.47985,-1.78533 11.19079,-1.93437 16.78441,-0.57503 1.16234,0.28246 2.29119,0.68829 3.43679,1.03243 4.42072,1.65313 9.2577,3.44161 12.52333,7.03334 0.48224,0.53038 0.87145,1.13843 1.30717,1.70764 2.26055,4.64148 1.89902,8.71627 -1.21289,12.8953 -0.70054,0.94075 -1.5408,1.7689 -2.3112,2.65336 -7.41382,7.23107 -17.35851,10.93177 -27.20181,13.46872 -6.57276,1.36791 -13.302668,2.36541 -20.031594,2.31537 -1.48159,-0.0217 -2.645696,-0.42588 -3.856159,-1.20974 0,0 4.343424,-2.79562 4.343424,-2.79562 v 0 c 1.123828,0.69263 2.225817,1.0319 3.576529,1.05866 6.623206,0.0754 13.24733,-0.83338 19.70942,-2.23567 3.85343,-1.01589 5.06999,-1.22964 8.81907,-2.65187 1.40891,-0.53448 2.72874,-1.30013 4.16303,-1.76217 0.15313,-0.0493 -0.27291,0.54328 -0.13297,0.46393 2.84842,-1.61494 3.76602,-2.64833 6.14021,-4.7673 4.46937,-4.98534 6.74502,-8.28114 3.67482,-14.86573 -0.41427,-0.55019 -0.78233,-1.13842 -1.2428,-1.65057 -3.18686,-3.54455 -7.9227,-5.31366 -12.26529,-6.92628 -1.1305,-0.33344 -2.24389,-0.73157 -3.39148,-1.00033 -5.58325,-1.30757 -11.2937,-1.01322 -16.70409,0.88299 0.57872,-0.43294 2.44916,-1.18046 1.73617,-1.29883 -0.80527,-0.1337 -1.45011,0.76116 -2.11402,1.2361 -2.520194,1.80286 -4.0272,4.49558 -4.735796,7.4611 -0.118877,0.80994 -0.291306,1.61382 -0.356637,2.42984 -0.364273,4.55011 0.461301,9.10771 0.953884,13.61016 0.345694,2.07239 0.715904,4.06475 1.352637,6.06781 0.121383,0.38185 0.233317,0.76715 0.372922,1.14272 0.06376,0.17152 0.377677,0.37971 0.236075,0.49562 -1.310836,1.07296 -2.832299,1.85909 -4.248447,2.78864 0.320527,-2.33381 -0.734472,-4.77209 -0.554368,-7.12476 -0.01667,-2.34434 -0.04738,-4.68938 -0.01005,-7.03346 0.127624,-1.7309 0.398854,-3.44767 0.655196,-5.16307 0.292819,-1.81728 0.459525,-3.64325 0.802486,-5.45183 0.312388,-1.42222 0.38762,-2.84704 0.515057,-4.29781 0.423341,-3.09006 0.745021,-6.21022 0.724717,-9.33146 0.01746,-4.11017 0.02924,-8.22198 -0.09001,-12.33082 0,0 4.643664,-2.36607 4.643664,-2.36607 z"
       inkscape:connector-curvature="0" />
    <text
       xml:space="preserve"
       style="font-style:normal;font-variant:normal;font-weight:normal;font-stretch:normal;font-size:10.58333302px;line-height:1.25;font-family:Inconsolata;-inkscape-font-specification:Inconsolata;letter-spacing:0px;word-spacing:0px;fill:#000000;fill-opacity:1;stroke:none;stroke-width:0.26458332"
       x="39.6875"
       y="140.89584"
       id="text821"><tspan
         sodipodi:role="line"
         id="tspan819"
         x="39.6875"
         y="140.89584"
         style="stroke-width:0.26458332">$\int_2^3 a^2+b*x+\frac{1}{2}$</tspan></text>
    <text
       xml:space="preserve"
       style="font-style:normal;font-variant:normal;font-weight:normal;font-stretch:normal;font-size:10.58333302px;line-height:1.25;font-family:Inconsolata;-inkscape-font-specification:Inconsolata;letter-spacing:0px;word-spacing:0px;fill:#000000;fill-opacity:1;stroke:none;stroke-width:0.26458332"
       x="71.4375"
       y="30.652779"
       id="text822"><tspan
         sodipodi:role="line"
         id="tspan820"
         x="71.4375"
         y="40.642124"
         style="stroke-width:0.26458332" /></text>
  </g>
</svg>
